<?xml version="1.0" standalone="no"?>
<!DOCTYPE svg PUBLIC "-//W3C//DTD SVG 20010904//EN"
 "http://www.w3.org/TR/2001/REC-SVG-20010904/DTD/svg10.dtd">
<svg version="1.0" xmlns="http://www.w3.org/2000/svg"
 width="336.000000pt" height="336.000000pt" viewBox="0 0 336.000000 336.000000"
 preserveAspectRatio="xMidYMid meet">
<metadata>
Created by potrace 1.11, written by Peter Selinger 2001-2013
</metadata>
<g transform="translate(0.000000,336.000000) scale(0.100000,-0.100000)"
fill="#000000" stroke="none">
<path d="M0 1680 l0 -1680 1680 0 1680 0 0 1680 0 1680 -1680 0 -1680 0 0
-1680z m1830 1541 c0 -4 30 -11 68 -15 85 -9 215 -38 315 -70 90 -30 218 -92
230 -112 4 -8 13 -14 20 -14 7 0 36 -16 64 -35 29 -19 57 -35 63 -35 5 0 10
-5 10 -10 0 -6 8 -14 18 -17 9 -4 25 -17 35 -30 10 -13 22 -23 27 -23 11 0
194 -183 192 -192 -1 -4 10 -16 23 -26 14 -11 25 -25 25 -31 0 -7 7 -14 15
-17 8 -4 15 -12 15 -20 0 -8 5 -14 10 -14 6 0 10 -5 10 -11 0 -6 14 -30 30
-55 17 -24 27 -44 23 -44 -4 0 -1 -6 8 -13 43 -33 118 -218 154 -382 10 -44
20 -87 23 -95 3 -8 4 -19 3 -24 -1 -6 3 -20 10 -32 6 -12 9 -36 7 -53 -3 -17
0 -31 5 -31 12 0 3 -372 -9 -391 -4 -8 -9 -20 -10 -29 -7 -50 -56 -236 -79
-300 -41 -112 -116 -249 -187 -343 -16 -19 -28 -39 -28 -42 0 -4 -11 -16 -25
-27 -14 -11 -25 -26 -25 -34 0 -8 -4 -14 -9 -14 -4 0 -44 -35 -87 -78 -115
-114 -276 -241 -311 -246 -8 -1 -18 -7 -22 -14 -6 -10 -135 -72 -151 -72 -4 0
-25 -8 -46 -17 -22 -9 -41 -17 -44 -18 -3 -1 -18 -7 -35 -14 -16 -7 -52 -17
-80 -23 -27 -6 -54 -14 -60 -18 -5 -5 -62 -16 -125 -25 -167 -25 -529 -9 -575
25 -5 4 -43 15 -82 25 -40 9 -73 21 -73 26 0 5 -7 9 -16 9 -24 0 -238 88 -242
100 -2 5 -10 10 -18 10 -8 0 -14 5 -14 11 0 5 -4 8 -9 5 -5 -3 -11 1 -15 9 -3
8 -12 15 -20 15 -7 0 -17 7 -20 16 -3 8 -10 12 -16 9 -6 -3 -13 1 -16 9 -3 9
-10 14 -15 11 -4 -3 -13 4 -19 15 -6 11 -16 20 -21 20 -6 0 -20 11 -31 25 -11
14 -23 23 -28 20 -4 -3 -33 24 -63 58 -31 35 -72 74 -91 88 -20 13 -36 29 -36
35 0 6 -11 21 -25 34 -14 13 -25 30 -25 37 0 8 -7 16 -15 19 -8 4 -15 12 -15
20 0 8 -4 14 -10 14 -5 0 -10 7 -10 15 0 8 -4 15 -10 15 -5 0 -10 7 -10 15 0
8 -4 15 -9 15 -5 0 -13 10 -17 23 -3 12 -12 29 -20 37 -7 9 -29 47 -48 85
-156 317 -189 746 -86 1131 29 110 102 285 121 292 5 2 7 8 3 13 -3 5 0 9 6 9
6 0 16 12 22 28 7 15 25 46 40 69 15 23 28 45 28 50 0 4 9 14 21 21 12 7 19
16 16 18 -2 3 7 17 22 32 136 143 205 212 212 212 4 0 16 11 27 25 11 14 25
25 30 25 6 0 15 6 19 13 9 14 59 45 86 54 9 3 17 9 17 14 0 5 7 9 15 9 8 0 25
10 36 21 70 70 448 189 600 189 15 0 31 5 34 10 8 12 295 14 295 1z"/>
<path d="M2361 2313 c-23 -86 -78 -120 -218 -136 l-93 -11 0 -108 0 -108 140
0 140 0 0 -360 0 -360 -140 0 -140 0 0 -115 0 -115 450 0 450 0 0 115 0 115
-140 0 -140 0 0 560 0 560 -150 0 -149 0 -10 -37z"/>
<path d="M890 1960 l0 -240 -240 0 -240 0 0 -120 0 -120 240 0 240 0 0 -240 0
-240 120 0 120 0 0 240 0 240 240 0 240 0 0 120 0 120 -240 0 -240 0 0 240 0
240 -120 0 -120 0 0 -240z"/>
</g>
</svg>
